HIERARCHY
ROOT Hips
{
	OFFSET 0.000000 0.000000 0.000000
	CHANNELS 6 Xposition Yposition Zposition Zrotation Yrotation Xrotation 
	JOINT LeftUpLeg_virtual
	{
		OFFSET 0.000000 0.000000 0.000000
		CHANNELS 3 Zrotation Yrotation Xrotation
		JOINT LeftUpLeg
		{
			OFFSET 8.479694 -4.795517 -0.379053
			CHANNELS 3 Zrotation Yrotation Xrotation
			JOINT LeftLeg
			{
				OFFSET 0.485052 -32.551468 0.112863
				CHANNELS 3 Zrotation Yrotation Xrotation
				JOINT LeftFoot
				{
					OFFSET 0.438033 -32.635670 -3.012641
					CHANNELS 3 Zrotation Yrotation Xrotation
					JOINT LeftToeBase
					{
						OFFSET 0.970169 -13.225353 11.864223
						CHANNELS 3 Zrotation Yrotation Xrotation
						End Site
						{
							OFFSET 0.000000 0.000000 0.000000
						}
					}
				}
			}
		}
	}
	JOINT RightUpLeg_virtual
	{
		OFFSET 0.000000 0.000000 0.000000
		CHANNELS 3 Zrotation Yrotation Xrotation
		JOINT RightUpLeg
		{
			OFFSET -8.479694 -4.795517 -0.379053
			CHANNELS 3 Zrotation Yrotation Xrotation
			JOINT RightLeg
			{
				OFFSET -0.484100 -32.551483 0.112903
				CHANNELS 3 Zrotation Yrotation Xrotation
				JOINT RightFoot
				{
					OFFSET -0.438985 -32.635651 -3.012681
					CHANNELS 3 Zrotation Yrotation Xrotation
					JOINT RightToeBase
					{
						OFFSET -0.970169 -13.225354 11.864223
						CHANNELS 3 Zrotation Yrotation Xrotation
						End Site
						{
							OFFSET 0.000000 0.000000 0.000000
						}
					}
				}
			}
		}
	}
	JOINT Spine_virtual
	{
		OFFSET 0.000000 0.000000 0.000000
		CHANNELS 3 Zrotation Yrotation Xrotation
		JOINT Spine
		{
			OFFSET 0.000000 7.722015 1.166203
			CHANNELS 3 Zrotation Yrotation Xrotation
			JOINT Spine1
			{
				OFFSET 0.000000 12.024086 0.248766
				CHANNELS 3 Zrotation Yrotation Xrotation
				JOINT Spine2
				{
					OFFSET -0.000000 11.503036 -0.491240
					CHANNELS 3 Zrotation Yrotation Xrotation
					JOINT Neck_virtual
					{
						OFFSET 0.000000 0.000000 0.000000
						CHANNELS 3 Zrotation Yrotation Xrotation
						JOINT Neck
						{
							OFFSET 0.000000 18.430687 -3.123054
							CHANNELS 3 Zrotation Yrotation Xrotation
							JOINT Head
							{
								OFFSET -0.000000 9.051071 1.034021
								CHANNELS 3 Zrotation Yrotation Xrotation
								End Site
								{
									OFFSET 0.000000 0.000000 0.000000
								}
							}
						}
					}
					JOINT LeftShoulder_virtual
					{
						OFFSET 0.000000 0.000000 0.000000
						CHANNELS 3 Zrotation Yrotation Xrotation
						JOINT LeftShoulder
						{
							OFFSET 6.197824 13.665230 -4.064723
							CHANNELS 3 Zrotation Yrotation Xrotation
							JOINT LeftArm
							{
								OFFSET 7.778132 -0.187073 -1.709282
								CHANNELS 3 Zrotation Yrotation Xrotation
								JOINT LeftForeArm
								{
									OFFSET 21.954697 0.000000 -2.041093
									CHANNELS 3 Zrotation Yrotation Xrotation
									JOINT LeftHand
									{
										OFFSET 22.992908 0.000000 -0.870901
										CHANNELS 3 Zrotation Yrotation Xrotation
										End Site
										{
											OFFSET 0.000000 0.000000 0.000000
										}
									}
								}
							}
						}
					}
					JOINT RightShoulder_virtual
					{
						OFFSET 0.000000 0.000000 0.000000
						CHANNELS 3 Zrotation Yrotation Xrotation
						JOINT RightShoulder
						{
							OFFSET -6.197824 13.665230 -4.064723
							CHANNELS 3 Zrotation Yrotation Xrotation
							JOINT RightArm
							{
								OFFSET -7.778132 -0.187073 -1.709282
								CHANNELS 3 Zrotation Yrotation Xrotation
								JOINT RightForeArm
								{
									OFFSET -21.954697 0.000000 -2.041093
									CHANNELS 3 Zrotation Yrotation Xrotation
									JOINT RightHand
									{
										OFFSET -22.992908 0.000000 -0.870901
										CHANNELS 3 Zrotation Yrotation Xrotation
										End Site
										{
											OFFSET 0.000000 0.000000 0.000000
										}
									}
								}
							}
						}
					}
				}
			}
		}
	}
}
MOTION
Frames: 5
Frame Time: 0.033333
59.265682 80.952110 -90.080322 179.788174 -32.500704 -179.907593 -4.515526 0.505743 12.462834 0.479992 -2.579452 -28.178266 9.768613 8.142594 32.039601 0.805853 -8.195201 -11.097553 0.000000 0.000000 0.000000 -1.388100 0.839716 13.255975 -4.984100 -6.870626 -31.402433 1.264688 5.492107 61.025254 9.883921 11.094605 -6.076432 0.000000 0.000000 0.000000 -1.468527 3.502217 -3.974410 -0.182080 1.866400 -3.333002 -2.753865 -2.354267 10.427360 0.028786 0.074545 -0.006132 -3.268029 -0.892207 13.192359 -9.441677 3.283455 -3.734481 0.000000 0.000000 0.000000 -1.022356 -0.645574 9.998572 13.679344 -8.209926 -3.072681 -80.703739 -35.821607 74.247756 178.004838 -70.603495 -150.556111 0.000000 0.000000 0.000000 -5.654802 1.233487 9.791635 36.006008 4.321813 1.515984 46.336423 9.805678 7.182792 0.494381 36.397306 -4.080652 0.000000 0.000000 0.000000 
58.193214 81.024750 -90.868477 179.853579 -34.529359 -179.961934 -4.709063 1.055888 12.188670 0.560310 -3.663967 -26.895202 9.528425 7.620886 31.917778 0.449706 -8.226947 -11.861348 0.000000 0.000000 0.000000 -1.519217 1.331148 13.059603 -4.585594 -5.792009 -34.085875 1.260532 5.742998 59.374834 9.768415 11.248336 -5.907749 0.000000 0.000000 0.000000 -1.697589 3.858907 -4.144994 -0.409871 1.540771 -2.875268 -2.665133 -2.409987 10.554950 0.011510 0.034534 0.006448 -3.057598 -0.901131 13.281000 -9.217941 3.333160 -3.908979 0.000000 0.000000 0.000000 -0.889987 -0.796493 10.132088 13.908921 -8.364778 -3.050974 -80.879719 -35.737285 74.228973 178.027132 -70.643465 -151.051997 0.000000 0.000000 0.000000 -5.525345 1.195467 9.926446 35.982311 3.561036 1.074892 46.699171 7.290196 7.456158 0.914608 35.920846 -3.954508 0.000000 0.000000 0.000000 
57.127403 81.038177 -91.589409 179.959898 -36.980068 179.998161 -4.790973 1.692986 11.933797 0.715661 -4.714850 -25.752009 9.121589 7.044987 31.718620 0.061206 -8.383602 -12.594598 0.000000 0.000000 0.000000 -1.601450 1.763972 12.853059 -4.245484 -4.535482 -36.420283 1.048211 5.910207 55.886462 9.904607 11.244139 -5.258716 0.000000 0.000000 0.000000 -1.849803 4.207444 -4.155344 -0.543888 1.268305 -2.459867 -2.510486 -2.425224 10.638909 0.013472 -0.121660 0.032331 -2.924198 -0.964395 13.355392 -9.011593 3.104138 -4.093649 0.000000 0.000000 0.000000 -0.787788 -0.843973 10.302805 14.143695 -8.628427 -2.984371 -81.142579 -35.782487 74.040241 178.326431 -70.655957 -151.707872 0.000000 0.000000 0.000000 -5.445339 1.124108 10.038723 35.975037 2.955587 0.691459 47.087840 5.012919 8.279800 1.330960 35.351720 -3.856064 0.000000 0.000000 0.000000 
56.025833 80.994125 -92.272018 179.941306 -39.377468 -179.977411 -4.897213 2.166399 11.793204 0.775631 -5.777075 -24.619058 8.677855 6.578848 31.506870 -0.313299 -8.591173 -13.331114 0.000000 0.000000 0.000000 -1.633901 2.207782 12.655230 -4.034825 -3.041723 -38.332955 0.651682 6.084068 51.019987 10.313742 11.093030 -4.087590 0.000000 0.000000 0.000000 -1.968874 4.475305 -3.995001 -0.614463 0.952472 -2.129164 -2.385273 -2.517535 10.686026 0.031945 0.012807 -0.012427 -2.774527 -1.003282 13.447708 -8.831430 3.031833 -4.236373 0.000000 0.000000 0.000000 -0.681260 -0.881654 10.446002 14.215816 -8.818351 -2.841525 -81.259532 -35.958064 73.712337 178.634650 -70.885124 -152.236201 0.000000 0.000000 0.000000 -5.325944 1.093094 10.195359 35.929513 2.568065 0.399472 47.349716 3.055044 9.171301 1.710585 34.837301 -3.834545 0.000000 0.000000 0.000000 
54.915493 80.910683 -92.972359 179.962794 -41.469323 179.985907 -4.892925 2.750043 11.754601 0.886332 -6.926645 -23.629125 8.307935 6.176999 31.408553 -0.560944 -8.745854 -14.124771 0.000000 0.000000 0.000000 -1.623577 2.670682 12.507494 -3.985748 -1.250976 -39.785015 0.170785 6.144565 45.510312 10.864280 10.780151 -2.603713 0.000000 0.000000 0.000000 -1.978612 4.843605 -3.717922 -0.555820 0.779622 -1.912432 -2.269278 -2.550384 10.730478 0.022152 0.029721 -0.004655 -2.642353 -1.085493 13.445324 -8.730460 2.856668 -4.327459 0.000000 0.000000 0.000000 -0.577227 -0.926061 10.533986 14.240641 -8.963665 -2.645263 -81.143549 -36.231964 73.074992 179.452429 -71.253558 -153.085945 0.000000 0.000000 0.000000 -5.209253 1.073783 10.235691 35.975887 2.268410 0.231506 47.594196 1.296701 9.719101 1.960651 34.644687 -4.087263 0.000000 0.000000 0.000000 
